<svg width="67" height="67" viewBox="0 0 67 67" fill="none" xmlns="http://www.w3.org/2000/svg">
<g clip-path="url(#clip0)">
<path d="M50.5039 44.4442L43.6368 44.444V40.3459C47.6101 37.2949 50.1767 32.4987 50.1767 27.1137V22.0238C51.3401 16.1165 50.834 11.7639 48.6699 9.08687C47.418 7.53789 45.908 6.94706 44.9445 6.72159C44.9442 5.86865 44.944 4.20098 44.944 1.01992C44.944 0.47816 44.505 0.0389961 43.9631 0.0389961C43.1719 0.0389961 42.3611 0.0299668 41.5024 0.0202832C40.6108 0.0103379 39.6887 0 38.755 0C31.6546 0 24.4946 0.667906 20.2167 5.51376C16.9945 9.16369 15.8834 14.579 16.8198 22.069C16.8206 22.0757 16.8228 22.0819 16.8237 22.0883V27.1135C16.8237 32.4988 19.3903 37.2951 23.3637 40.3459V44.4442H16.4963C12.3494 44.4442 8.97559 47.8178 8.97559 51.9649C8.97559 51.9675 8.97598 51.9699 8.97598 51.9725V57.1967C8.97598 57.7382 9.4154 58.1776 9.9569 58.1776C10.4971 58.1776 10.9378 57.7382 10.9378 57.1967V51.9649C10.9378 51.9632 10.9376 51.9616 10.9376 51.9599C10.9403 48.897 13.4328 46.4061 16.4962 46.4061H24.0477L27.6431 48.8031L31.1727 52.3328L29.9903 65.0376H20.0937V58.57C20.0937 58.0283 19.6545 57.5891 19.1127 57.5891C18.571 57.5891 18.1318 58.0283 18.1318 58.57V65.0378H10.9381V61.1208C10.9381 60.5793 10.4973 60.1398 9.95716 60.1398C9.41567 60.1398 8.97624 60.5793 8.97624 61.1208V66.0112C8.97624 66.0138 8.97585 66.0163 8.97585 66.0188C8.97585 66.4633 9.27172 66.8384 9.67712 66.9588C9.76598 66.9853 9.85967 67 9.95716 67C9.95886 67 9.96043 66.9997 9.96227 66.9997H30.8775C30.8803 66.9997 30.883 67.0001 30.8856 67.0001C30.8884 67.0001 30.891 66.9997 30.8937 66.9997H36.1126C36.1135 66.9997 36.1144 66.9999 36.1152 66.9999C36.1161 66.9999 36.117 66.9997 36.1179 66.9997H57.0388C57.0406 66.9997 57.0422 67 57.0439 67C57.5858 67 58.0248 66.561 58.0248 66.0191V51.9649C58.0247 47.818 54.651 44.4442 50.5039 44.4442ZM21.6877 6.81228C25.4507 2.5494 32.1144 1.96184 38.755 1.96184C39.6778 1.96184 40.5942 1.97205 41.4804 1.982C41.9956 1.98775 42.4938 1.99338 42.982 1.99691C42.9821 6.8272 42.9828 7.5642 42.9828 7.5642C42.9833 8.10046 43.4057 8.53661 43.9419 8.54394C44.017 8.5463 45.7952 8.62115 47.1736 10.3567C48.5676 12.1122 49.0806 14.9842 48.6923 18.754L47.2147 15.7989C46.9986 15.3667 46.4996 15.1564 46.0393 15.3031C45.9512 15.3312 37.1685 18.1115 32.0653 18.1115C27.0996 18.1115 22.6298 15.4273 22.5861 15.4006C22.1547 15.1366 21.5933 15.2446 21.2898 15.6489L18.5282 19.3313C18.1721 13.7257 19.213 9.61555 21.6877 6.81228ZM18.7859 27.1137V22.2592L22.3471 17.5106C23.9454 18.3445 27.7772 20.0738 32.0659 20.0738C36.5919 20.0738 43.4844 18.1256 45.8319 17.4201L48.2148 22.1858V27.1139C48.2148 35.1611 41.7211 41.7191 33.6987 41.8258C33.6346 41.8126 33.5683 41.8058 33.5003 41.8058C33.4323 41.8058 33.3662 41.8127 33.302 41.8258C25.2794 41.719 18.7859 35.1609 18.7859 27.1137ZM41.675 41.6444V44.9001L38.5493 46.984L34.4813 45.9671V43.7606C37.083 43.6089 39.526 42.8581 41.675 41.6444ZM25.3257 44.8999V41.6443C27.4745 42.8581 29.9177 43.6089 32.5193 43.7604V45.967L28.4514 46.9839L25.3257 44.8999ZM30.1871 48.5724L33.5002 47.7442L36.8133 48.5724L34.402 50.984H32.5987L30.1871 48.5724ZM31.9608 65.0376L33.0863 52.9458H33.9144L35.0398 65.0376H31.9608ZM56.0627 65.0376H37.0101L35.8275 52.3328L39.3569 48.8032L42.9526 46.406L50.5037 46.4061C53.5689 46.4061 56.0626 48.8998 56.0626 51.9649V65.0376H56.0627Z" fill="url(#paint0_linear)"/>
<path d="M51.8115 53.6653H48.8686V52.0303C48.8686 51.4885 48.4295 51.0494 47.8876 51.0494H43.9638C43.4219 51.0494 42.9829 51.4885 42.9829 52.0303V53.6653H40.04C39.4981 53.6653 39.0591 54.1043 39.0591 54.6462V61.1861C39.0591 61.7279 39.4981 62.167 40.04 62.167H51.8116C52.3535 62.167 52.7925 61.7279 52.7925 61.1861V54.6462C52.7924 54.1043 52.3533 53.6653 51.8115 53.6653ZM44.9447 53.0113H46.9067V53.6652H44.9447V53.0113ZM50.8305 60.205H41.0209V55.6271H43.9638H47.8876H50.8305V60.205Z" fill="url(#paint1_linear)"/>
</g>
<defs>
<linearGradient id="paint0_linear" x1="33.5002" y1="0" x2="33.5002" y2="67.0001" gradientUnits="userSpaceOnUse">
<stop stop-color="#979695"/>
<stop offset="1" stop-color="#D24A43"/>
</linearGradient>
<linearGradient id="paint1_linear" x1="45.9258" y1="51.0494" x2="45.9258" y2="62.167" gradientUnits="userSpaceOnUse">
<stop stop-color="#979695"/>
<stop offset="1" stop-color="#D24A43"/>
</linearGradient>
<clipPath id="clip0">
<rect width="67" height="67" fill="white"/>
</clipPath>
</defs>
</svg>
