<svg width="67" height="67" viewBox="0 0 67 67" fill="none" xmlns="http://www.w3.org/2000/svg">
<path d="M49.1329 20.1C49.1329 18.2016 47.6813 16.75 45.7829 16.75H21.2162C19.3178 16.75 17.8662 18.2016 17.8662 20.1V33.5C17.8662 35.3984 19.3178 36.85 21.2162 36.85H45.7828C47.6812 36.85 49.1328 35.3984 49.1328 33.5V20.1H49.1329ZM46.8996 33.5C46.8996 34.17 46.4529 34.6166 45.7829 34.6166H38.413L42.098 30.9316C42.5446 30.485 42.5446 29.815 42.098 29.3682C41.6513 28.9216 40.9813 28.9216 40.5346 29.3682L35.2862 34.6166H28.3628L32.0478 30.9316C32.4944 30.485 32.4944 29.815 32.0478 29.3682C31.6012 28.9215 30.9312 28.9216 30.4844 29.3682L25.2361 34.6166H21.2161C20.5461 34.6166 20.0995 34.17 20.0995 33.5V20.1C20.0995 19.43 20.5461 18.9834 21.2161 18.9834H45.7827C46.4527 18.9834 46.8993 19.43 46.8993 20.1V33.5H46.8996Z" fill="url(#paint0_linear)"/>
<path d="M64.99 19.095H62.4216C61.305 19.095 60.4116 19.9884 60.4116 21.105V23.45H59.1832V3.35C59.1832 1.45162 57.7316 0 55.8332 0H11.1666C9.26825 0 7.81662 1.45162 7.81662 3.35V23.45H6.58825V21.105C6.58825 19.9884 5.69487 19.095 4.57825 19.095H2.01C0.893377 19.095 0 19.9884 0 21.105V28.14C0 29.2566 0.893377 30.15 2.01 30.15H4.69C5.80662 30.15 6.7 29.2566 6.58838 28.14V25.6834H7.81675V37.9668H6.7C6.03 37.9668 5.58338 38.4134 5.58338 39.0834V52.4834C5.58338 52.5023 5.58508 52.5205 5.58573 52.5393C5.58508 52.558 5.58338 52.576 5.58338 52.5951V56.9501C5.58338 58.8485 7.035 60.3001 8.93338 60.3001H10.05V62.5335C10.05 64.99 12.06 67 14.5166 67H18.9832C21.4399 67 23.4499 64.99 23.4499 62.5334V60.3H43.5499V62.5334C43.5499 64.99 45.5599 67 48.0165 67H52.4831C54.9397 67 56.9497 64.99 56.9497 62.5334V60.3H58.0664C59.9647 60.3 61.4164 58.8484 61.4164 56.95V52.595C61.4164 52.576 61.4147 52.5578 61.414 52.5391C61.4147 52.5204 61.4164 52.5024 61.4164 52.4832V39.0832C61.4164 38.4132 60.9697 37.9666 60.2997 37.9666H59.1831V25.6832H60.4115V28.1399C60.4115 29.2565 61.3049 30.1499 62.4215 30.1499H64.9899C66.1065 30.1499 66.9999 29.2565 66.9999 28.1399V21.1049C67 19.9884 66.1066 19.095 64.99 19.095ZM4.46662 27.9166H2.23338V21.2166H4.46675V27.9166H4.46662ZM21.2166 62.5334C21.2166 63.7618 20.2116 64.7668 18.9832 64.7668H14.5166C13.2882 64.7668 12.2832 63.7618 12.2832 62.5334V60.3H21.2166V62.5334V62.5334ZM54.7166 62.5334C54.7166 63.7618 53.7116 64.7668 52.4832 64.7668H48.0166C46.7882 64.7668 45.7832 63.7618 45.7832 62.5334V60.3H54.7166V62.5334ZM59.1834 56.95C59.1834 57.62 58.7367 58.0666 58.0667 58.0666H56.95H43.55H23.45H10.05H8.93338C8.26338 58.0666 7.81675 57.62 7.81675 56.95V53.7116H59.1834V56.95ZM59.1834 51.3666H7.81662V40.2H13.4H14.5166V39.0834V15.41C14.5166 14.2934 15.41 13.4 16.5266 13.4H50.4732C51.5899 13.4 52.4832 14.2934 52.4832 15.41V39.0834V40.2H53.5999H59.1832V51.3666H59.1834ZM54.7166 37.9666V15.41C54.7166 13.065 52.8182 11.1666 50.4732 11.1666H44.6666V7.81662C44.6666 7.14662 44.22 6.7 43.55 6.7C42.88 6.7 42.4334 7.14662 42.4334 7.81662V11.1666H39.0834V7.81662C39.0834 7.14662 38.6367 6.7 37.9667 6.7C37.2968 6.7 36.8501 7.14662 36.8501 7.81662V11.1666H33.5V7.81662C33.5 7.14662 33.0534 6.7 32.3834 6.7C31.7134 6.7 31.2668 7.14662 31.2668 7.81662V11.1666H27.9168V7.81662C27.9168 7.14662 27.4701 6.7 26.8001 6.7C26.1301 6.7 25.6835 7.14662 25.6835 7.81662V11.1666H22.3335V7.81662C22.3335 7.14662 21.8869 6.7 21.2169 6.7C20.5469 6.7 20.1003 7.14662 20.1003 7.81662V11.1666H16.5269C14.1819 11.1666 12.2835 13.065 12.2835 15.41V37.9666H10.05V3.35C10.05 2.68 10.4966 2.23338 11.1666 2.23338H55.8332C56.5032 2.23338 56.9499 2.68 56.9499 3.35V37.9666H54.7166V37.9666ZM64.7666 27.9166H62.5332V21.2166H64.7666V27.9166Z" fill="url(#paint1_linear)"/>
<path d="M37.9665 43.55C38.6365 43.55 39.0831 43.1034 39.0831 42.4334C39.0831 41.7634 38.6365 41.3168 37.9665 41.3168H29.0331C28.3631 41.3168 27.9165 41.7634 27.9165 42.4334C27.9165 43.1034 28.3631 43.55 29.0331 43.55H37.9665Z" fill="url(#paint2_linear)"/>
<path d="M41.3168 45.7834H25.6835C25.0135 45.7834 24.5669 46.23 24.5669 46.9C24.5669 47.57 25.0135 48.0166 25.6835 48.0166H41.3169C41.9869 48.0166 42.4335 47.57 42.4335 46.9C42.4335 46.23 41.9868 45.7834 41.3168 45.7834Z" fill="url(#paint3_linear)"/>
<path d="M14.5165 42.4334C12.6181 42.4334 11.1665 43.885 11.1665 45.7834C11.1665 47.6818 12.6181 49.1334 14.5165 49.1334C16.4149 49.1334 17.8665 47.6818 17.8665 45.7834C17.8665 43.885 16.4149 42.4334 14.5165 42.4334ZM14.5165 46.9C13.8465 46.9 13.3999 46.4534 13.3999 45.7834C13.3999 45.1134 13.8465 44.6668 14.5165 44.6668C15.1865 44.6668 15.6331 45.1134 15.6331 45.7834C15.6331 46.4534 15.1865 46.9 14.5165 46.9Z" fill="url(#paint4_linear)"/>
<path d="M49.1338 45.7834C49.1338 47.6818 50.5854 49.1334 52.4838 49.1334C54.3822 49.1334 55.8338 47.6818 55.8338 45.7834C55.8338 43.885 54.3822 42.4334 52.4838 42.4334C50.5854 42.4334 49.1338 43.885 49.1338 45.7834ZM53.6004 45.7834C53.6004 46.4534 53.1538 46.9 52.4838 46.9C51.8138 46.9 51.3672 46.4534 51.3672 45.7834C51.3672 45.1134 51.8138 44.6668 52.4838 44.6668C53.1538 44.6666 53.6004 45.1134 53.6004 45.7834Z" fill="url(#paint5_linear)"/>
<defs>
<linearGradient id="paint0_linear" x1="33.4996" y1="16.75" x2="33.4996" y2="36.85" gradientUnits="userSpaceOnUse">
<stop stop-color="#979695"/>
<stop offset="1" stop-color="#D24A43"/>
</linearGradient>
<linearGradient id="paint1_linear" x1="33.4999" y1="0" x2="33.4999" y2="67" gradientUnits="userSpaceOnUse">
<stop stop-color="#979695"/>
<stop offset="1" stop-color="#D24A43"/>
</linearGradient>
<linearGradient id="paint2_linear" x1="33.4998" y1="41.3168" x2="33.4998" y2="43.55" gradientUnits="userSpaceOnUse">
<stop stop-color="#979695"/>
<stop offset="1" stop-color="#D24A43"/>
</linearGradient>
<linearGradient id="paint3_linear" x1="33.5002" y1="45.7834" x2="33.5002" y2="48.0166" gradientUnits="userSpaceOnUse">
<stop stop-color="#979695"/>
<stop offset="1" stop-color="#D24A43"/>
</linearGradient>
<linearGradient id="paint4_linear" x1="14.5165" y1="42.4334" x2="14.5165" y2="49.1334" gradientUnits="userSpaceOnUse">
<stop stop-color="#979695"/>
<stop offset="1" stop-color="#D24A43"/>
</linearGradient>
<linearGradient id="paint5_linear" x1="52.4838" y1="42.4334" x2="52.4838" y2="49.1334" gradientUnits="userSpaceOnUse">
<stop stop-color="#979695"/>
<stop offset="1" stop-color="#D24A43"/>
</linearGradient>
</defs>
</svg>
