<svg width="35" height="35" viewBox="0 0 35 35" fill="none" xmlns="http://www.w3.org/2000/svg">
<path d="M19.1523 13.216H15.1874V9.25119C15.1874 8.88643 14.8914 8.59039 14.5266 8.59039C14.1619 8.59039 13.8658 8.88643 13.8658 9.25119V13.216H9.90104C9.53627 13.216 9.24023 13.512 9.24023 13.8768C9.24023 14.2416 9.53627 14.5376 9.90104 14.5376H13.8658V18.5024C13.8658 18.8672 14.1619 19.1632 14.5266 19.1632C14.8914 19.1632 15.1874 18.8672 15.1874 18.5024V14.5376H19.1523C19.517 14.5376 19.8131 14.2416 19.8131 13.8768C19.8131 13.512 19.517 13.216 19.1523 13.216Z" fill="white"/>
<path d="M34.1659 33.8813L24.3471 23.6699C26.8515 21.1582 28.4031 17.6956 28.4031 13.8768C28.4031 6.22475 22.1783 0 14.5262 0C6.87416 0 0.649414 6.22475 0.649414 13.8768C0.649414 21.5289 6.87416 27.7537 14.5262 27.7537C17.8851 27.7537 20.9677 26.553 23.3704 24.5607L33.213 34.7971C33.3426 34.9326 33.5157 35 33.6895 35C33.8547 35 34.0192 34.9385 34.1474 34.8156C34.4104 34.5625 34.4183 34.1443 34.1659 33.8813ZM1.97102 13.8768C1.97102 6.95361 7.60303 1.3216 14.5262 1.3216C21.4495 1.3216 27.0815 6.95361 27.0815 13.8768C27.0815 20.8 21.4495 26.4321 14.5262 26.4321C7.60303 26.4321 1.97102 20.8 1.97102 13.8768Z" fill="white"/>
</svg>
