<svg width="34" height="34" viewBox="0 0 34 34" fill="none" xmlns="http://www.w3.org/2000/svg">
<path d="M16.7116 1.0459C10.6024 1.0459 5.63202 6.01625 5.63202 12.1255C5.63202 19.8042 16.7225 32.9209 16.7225 32.9209C16.7225 32.9209 27.7912 19.4265 27.7912 12.1255C27.7912 6.01625 22.8211 1.0459 16.7116 1.0459ZM20.0546 15.3696C19.1328 16.2912 17.9223 16.7521 16.7116 16.7521C15.5011 16.7521 14.2903 16.2912 13.3689 15.3696C11.5255 13.5264 11.5255 10.5273 13.3689 8.68391C14.2615 7.79093 15.4488 7.29911 16.7116 7.29911C17.9744 7.29911 19.1616 7.79113 20.0546 8.68391C21.8979 10.5273 21.8979 13.5264 20.0546 15.3696Z" fill="#D24A43"/>
</svg>
