<svg width="34" height="34" viewBox="0 0 34 34" fill="none" xmlns="http://www.w3.org/2000/svg">
<path d="M24.7154 14.0794L26.7354 15.3418C26.8174 15.3931 26.9086 15.4176 26.9989 15.4176C27.1649 15.4176 27.3272 15.3346 27.4217 15.1834C27.5675 14.9502 27.4965 14.6429 27.2632 14.4971L25.2433 13.2347C25.0103 13.0889 24.7028 13.1598 24.557 13.3931C24.4112 13.6263 24.4822 13.9336 24.7154 14.0794Z" fill="#898989"/>
<path d="M13.5073 13.6268C13.554 13.8643 13.7622 14.0289 13.9955 14.0289C14.0273 14.0289 14.0597 14.0258 14.0921 14.0195L16.0185 13.6408C16.2885 13.5877 16.4642 13.3259 16.4112 13.056C16.3581 12.786 16.0958 12.6103 15.8264 12.6634L13.9 13.0421C13.63 13.0951 13.4543 13.3569 13.5073 13.6268Z" fill="#898989"/>
<path d="M31.4398 20.2809C31.4697 20.2365 31.4984 20.1911 31.5252 20.1443L32.7242 18.0525C33.4089 16.8579 33.4251 15.4226 32.7676 14.2129L30.4404 9.93145C29.7767 8.7103 28.6843 7.79775 27.3645 7.36192C27.1034 7.27566 26.8216 7.41751 26.7354 7.67868C26.6491 7.93986 26.7909 8.22149 27.0521 8.30775C27.325 8.39786 27.586 8.51314 27.8325 8.651L26.034 10.477C25.7772 10.7377 25.4359 10.9058 25.0727 10.9503L21.7857 11.3537C20.9152 11.4607 20.0668 11.0044 19.6765 10.218L17.1271 5.08273C17.3013 5.1065 17.4745 5.14502 17.6445 5.20113L24.8186 7.57017C25.0798 7.65643 25.3615 7.51466 25.4477 7.25341C25.534 6.99224 25.3922 6.71061 25.131 6.62435L17.9568 4.25544C17.3994 4.07129 16.8166 4.01923 16.2509 4.08936C16.2481 4.08976 16.2452 4.08995 16.2423 4.09049C15.4642 4.1887 14.7189 4.51861 14.1174 5.05809L9.80794 8.9234C9.59245 9.11671 9.34721 9.27017 9.0792 9.37954L5.19928 10.9625C3.40916 11.6929 2.42814 13.5897 2.86662 15.4728L3.81378 19.54C3.87613 19.8078 3.98451 20.054 4.12874 20.2719H2.77379C1.24432 20.2718 0 21.5161 0 23.0456C0 24.5751 1.24432 25.8194 2.77379 25.8194H31.2261C32.7556 25.8194 34 24.5751 34 23.0456C34 21.5881 32.8698 20.3904 31.4398 20.2809ZM3.83682 15.2468C3.66503 14.5092 3.78582 13.7691 4.13233 13.1535L9.53687 14.2597C9.84944 14.3236 10.1124 14.5094 10.2772 14.7826C10.442 15.0557 10.4836 15.375 10.3945 15.6812L10.3511 15.8304C10.2742 16.0945 10.426 16.3709 10.6901 16.4478C10.7366 16.4613 10.7834 16.4677 10.8295 16.4677C11.0453 16.4677 11.2442 16.3264 11.3075 16.1088L11.351 15.9595C11.5164 15.3912 11.4358 14.7747 11.1301 14.2679C10.8244 13.7612 10.3164 13.4024 9.73662 13.2838L4.87654 12.289C5.08519 12.1264 5.31914 11.9894 5.57553 11.8848L9.45545 10.3018C9.82972 10.1491 10.1721 9.93477 10.473 9.66489L14.7825 5.79958C15.1465 5.47306 15.5816 5.25074 16.0428 5.13897L18.7843 10.6611C19.3062 11.7124 20.3803 12.3654 21.5337 12.3654C21.6574 12.3654 21.782 12.3579 21.907 12.3425L25.194 11.9391C25.7793 11.8673 26.3296 11.5963 26.7435 11.1761L28.6502 9.24016C29.0145 9.57159 29.3244 9.96438 29.5651 10.4072L31.8922 14.6887C32.3835 15.5924 32.3714 16.6647 31.8599 17.5572L30.6609 19.6489C30.6301 19.7026 30.5953 19.7531 30.5576 19.8007L29.3335 17.3298C28.5646 15.7777 26.6744 15.1369 25.1202 15.9012L19.2859 18.7701C19.0391 18.8915 18.9373 19.19 19.0587 19.4368C19.1801 19.6837 19.4785 19.7854 19.7254 19.664L25.5596 16.7951C26.6227 16.2722 27.9151 16.7107 28.4409 17.772L29.6774 20.268C29.6471 20.2703 29.6167 20.2717 29.5862 20.2717H10.0959L10.7354 18.0745C10.8123 17.8104 10.6605 17.534 10.3964 17.4571C10.1323 17.3804 9.85582 17.532 9.77898 17.7961L9.05854 20.2718H5.99044C5.41138 20.2718 4.91526 19.8779 4.78391 19.314L3.83682 15.2468ZM31.2261 24.8233H2.77379C1.79357 24.8233 0.996094 24.0258 0.996094 23.0456C0.996094 22.0654 1.79357 21.2679 2.77379 21.2679H9.43068C9.43128 21.2679 9.43194 21.2681 9.43254 21.2681C9.43307 21.2681 9.43361 21.2679 9.43414 21.2679H31.2261C32.2064 21.2679 33.0039 22.0654 33.0039 23.0457C33.0039 24.0258 32.2064 24.8233 31.2261 24.8233Z" fill="#898989"/>
<path d="M12.1621 10.9849L14.3604 11.6827C14.4105 11.6987 14.4613 11.7062 14.5112 11.7062C14.7224 11.7062 14.9185 11.5708 14.9857 11.3588C15.069 11.0966 14.9239 10.8166 14.6617 10.7334L12.4634 10.0355C12.2012 9.9523 11.9213 10.0973 11.838 10.3595C11.7549 10.6217 11.8999 10.9016 12.1621 10.9849Z" fill="#898989"/>
</svg>
