<svg width="28" height="28" viewBox="0 0 28 28" fill="none" xmlns="http://www.w3.org/2000/svg">
<g clip-path="url(#clip0)">
<path d="M22.0646 16.5808C22.0234 16.3575 21.8086 16.21 21.5859 16.2512C21.3627 16.2923 21.2151 16.5067 21.2563 16.7299L21.5983 18.5839L20.1011 21.5783L17.7212 23.2386C17.665 23.2779 17.6194 23.3306 17.5888 23.3919L15.7344 27.1005L14.1185 26.6388L16.4701 21.6287L18.1791 21.1626C18.27 21.1378 18.3496 21.0825 18.4047 21.006L19.7235 19.1712C19.7945 19.0723 19.8181 18.947 19.7879 18.8292L18.171 12.5293L19.2713 10.9051C19.3101 10.8478 19.3338 10.7816 19.3402 10.7126L19.479 9.2213C19.5 8.99534 19.3338 8.79507 19.1078 8.77407C18.8814 8.75241 18.6815 8.91921 18.6606 9.14523L18.5316 10.5315L17.3867 12.2217C17.3207 12.3191 17.2996 12.4403 17.3288 12.5543L18.944 18.8475L17.8223 20.4081L16.0706 20.8858C15.9544 20.9175 15.858 20.9986 15.8068 21.1077L13.5649 25.8839L11.1687 20.0931C11.1473 20.0413 11.1155 19.9944 11.0752 19.9553L9.58678 18.5106C9.42398 18.3526 9.16378 18.3564 9.00567 18.5193C8.84757 18.6822 8.85145 18.9424 9.01431 19.1004L10.4418 20.4859L13.1615 27.0586C13.2093 27.1729 13.3089 27.2627 13.4283 27.2966L15.8365 27.9846C16.0244 28.0382 16.2297 27.948 16.317 27.7733L18.2771 23.853L20.657 22.1926C20.7132 22.1534 20.7587 22.1007 20.7894 22.0394L22.3949 18.8285C22.4348 18.7486 22.4477 18.658 22.4315 18.5701L22.0646 16.5808Z" fill="#898989"/>
<path d="M23.8641 9.67805L22.66 3.54288C22.6358 3.41961 22.5566 3.31423 22.445 3.2567L16.7725 0.334525C16.656 0.273877 16.5139 0.271088 16.396 0.330369L14.3718 1.34553L10.1084 0.0185956C9.9301 -0.0369669 9.73678 0.0348378 9.6378 0.193213L4.19065 8.90865C4.10091 9.05221 4.1084 9.23617 4.20957 9.37202L6.3123 12.1941L6.47937 16.4818C6.48348 16.5873 6.52799 16.6871 6.60379 16.7607L7.83245 17.9532C8.00619 18.1219 8.29642 18.1006 8.4443 17.9091C8.5703 17.7458 8.55274 17.5069 8.40492 17.3634L7.29427 16.2854L7.15914 12.8178L8.74448 13.825C8.87901 13.9105 9.05581 13.9095 9.18936 13.8224L10.2161 13.1527L11.596 12.8868C11.8189 12.8439 11.9647 12.6284 11.9218 12.4055C11.8788 12.1827 11.6633 12.0364 11.4405 12.0798L9.9814 12.3609C9.92912 12.3709 9.8793 12.391 9.83467 12.4201L8.96191 12.9893L7.0023 11.7444L5.03639 9.10596L10.1667 0.897424L14.2857 2.17941C14.3872 2.21096 14.4971 2.20205 14.592 2.15436L16.4125 1.24135L18.9687 5.83204L18.8125 7.51133C18.7914 7.7373 18.9576 7.93757 19.1837 7.95857C19.41 7.97907 19.6099 7.81342 19.6309 7.5874L19.7989 5.78135C19.8066 5.69877 19.7891 5.61586 19.7487 5.5434L17.6006 1.68558L21.8916 3.89616L23.0194 9.64239L20.6241 12.4732C20.5446 12.5672 20.5114 12.692 20.5337 12.8132L20.9438 15.0364C20.9855 15.2626 21.2132 15.413 21.4376 15.363C21.6505 15.3156 21.7917 15.1016 21.7521 14.8874L21.3773 12.8555L23.7745 10.0225C23.8552 9.92737 23.8882 9.80055 23.8641 9.67805Z" fill="#898989"/>
</g>
<defs>
<clipPath id="clip0">
<rect width="28" height="28" fill="white"/>
</clipPath>
</defs>
</svg>
