<svg width="32" height="32" viewBox="0 0 32 32" fill="none" xmlns="http://www.w3.org/2000/svg">
<g clip-path="url(#clip0)">
<path d="M29.2024 9.83842C28.8241 7.97404 27.5696 6.50067 25.5744 5.57761C23.3014 4.52598 20.1143 4.19242 16.1018 4.58617C9.8878 5.19598 5.86298 7.13423 4.1393 10.3469C3.23273 12.0367 2.99305 14.0927 3.4463 16.2927C3.76198 17.8253 4.30467 18.9214 4.39792 19.1027C4.48186 19.3104 5.03105 20.5977 6.24661 21.8911C7.45155 23.1732 9.56405 24.7017 12.7852 24.7017C16.1204 24.7017 17.1418 23.5808 18.3244 22.283C19.3192 21.1914 20.4467 19.9541 23.4023 19.0317C25.1562 18.4842 26.8114 17.1621 27.9435 15.4042C29.0976 13.6123 29.5564 11.5836 29.2024 9.83842ZM23.1197 18.126C19.9186 19.125 18.6459 20.5217 17.6232 21.644C16.5076 22.8684 15.7015 23.753 12.7853 23.753C10.4841 23.753 8.52505 22.9167 6.96242 21.2672C5.7798 20.0189 5.27736 18.7469 5.27242 18.7341C5.2658 18.7169 5.25786 18.6995 5.24923 18.6832C5.22686 18.6409 3.0338 14.4052 4.97873 10.7894C6.54555 7.87636 10.3191 6.10698 16.1945 5.53048C23.1523 4.84773 27.5543 6.48661 28.2726 10.027C28.909 13.1648 26.4049 17.1007 23.1197 18.126Z" fill="#898989"/>
<path d="M27.4663 6.81336C27.2935 6.61667 26.9938 6.59711 26.797 6.7698C26.7802 6.78449 25.0994 8.24392 23.1956 8.69186C21.0073 9.20686 19.3809 11.3066 19.3127 11.3957C19.1537 11.6037 19.1933 11.901 19.4012 12.0602C19.4872 12.1262 19.5886 12.158 19.6893 12.158C19.8317 12.158 19.9727 12.0942 20.0662 11.9724C20.0808 11.9532 21.559 10.0516 23.4129 9.61542C25.5522 9.11205 27.3478 7.5488 27.4232 7.48249C27.6198 7.30955 27.639 7.01011 27.4663 6.81336Z" fill="#898989"/>
<path d="M22.9847 9.21299C22.8996 9.02099 22.702 8.9133 22.5047 8.9328C22.2466 8.91918 20.807 8.70755 19.5227 8.50436C19.2645 8.46343 19.021 8.63999 18.98 8.89874C18.939 9.15749 19.1157 9.40049 19.3745 9.44143C21.5573 9.78693 22.2581 9.8773 22.5345 9.8773C22.6561 9.8773 22.6957 9.8598 22.7431 9.83893C22.9826 9.73274 23.0908 9.45255 22.9847 9.21299Z" fill="#898989"/>
<path d="M16.3952 17.5317C16.3644 17.2716 16.1285 17.0856 15.8682 17.1166C14.4977 17.2794 13.4875 17.6787 12.8657 18.3033C12.4041 18.767 12.311 19.2028 12.2924 19.3452C12.268 19.4645 12.0351 20.45 10.9866 20.6483C9.33397 20.9609 8.30272 22.9007 8.25954 22.9831C8.13816 23.2153 8.22791 23.502 8.4601 23.6234C8.53029 23.6601 8.60547 23.6774 8.67954 23.6774C8.85041 23.6774 9.0156 23.5847 9.10035 23.4227C9.3346 22.9745 10.162 21.7699 11.163 21.5805C12.9131 21.2494 13.2173 19.5677 13.2293 19.4963C13.2328 19.4757 13.2338 19.4785 13.2342 19.4638C13.2549 19.3692 13.5357 18.3491 15.9801 18.0587C16.2403 18.0279 16.4262 17.7919 16.3952 17.5317Z" fill="#898989"/>
<path d="M14.6023 21.5637C14.5285 21.3122 14.265 21.1682 14.0136 21.242C12.1632 21.7846 11.0071 23.8014 10.9588 23.8869C10.83 24.1151 10.9106 24.4044 11.1387 24.5332C11.2124 24.5748 11.2925 24.5946 11.3715 24.5946C11.537 24.5946 11.6979 24.5077 11.785 24.3533C11.795 24.3357 12.7959 22.5878 14.2806 22.1524C14.532 22.0787 14.676 21.815 14.6023 21.5637Z" fill="#898989"/>
<path d="M9.41518 13.499C9.39649 13.2377 9.16924 13.041 8.90824 13.0597C7.7118 13.145 7.57255 12.9971 6.90274 12.2859C6.77112 12.1461 6.62193 11.9877 6.44593 11.8118C5.22662 10.5924 4.29749 10.6957 4.19549 10.7115C3.93661 10.7516 3.75924 10.994 3.79936 11.2529C3.83955 11.5118 4.08193 11.689 4.3408 11.649C4.34593 11.6481 4.91474 11.6222 5.77512 12.4826C5.94099 12.6485 6.08505 12.8014 6.21212 12.9363C6.8948 13.6611 7.29355 14.0262 8.45687 14.0262C8.6148 14.0262 8.78705 14.0195 8.97574 14.006C9.23718 13.9874 9.43387 13.7604 9.41518 13.499Z" fill="#898989"/>
<path d="M13.3412 8.50842C13.0161 8.32686 12.4749 8.23354 11.7423 8.81998C11.4159 9.08123 11.1331 9.34423 10.8836 9.57623C9.96681 10.4286 9.79913 10.4935 9.38894 10.1545C9.33788 10.1123 9.32963 10.0911 9.32944 10.0917C9.3195 9.97448 9.61 9.63092 9.76613 9.44623C10.1079 9.04192 10.4953 8.58367 10.4411 8.04442C10.4114 7.75048 10.2574 7.49167 9.98313 7.27517C8.57088 6.16023 6.774 7.45729 6.69825 7.51304C6.48719 7.66829 6.44188 7.96523 6.59719 8.17629C6.75244 8.38729 7.04938 8.43261 7.26038 8.27729C7.27313 8.26792 8.54407 7.34804 9.39513 8.01986C9.46719 8.07667 9.495 8.11979 9.49694 8.13942C9.51094 8.27836 9.21706 8.62592 9.0415 8.83367C8.69594 9.24236 8.33869 9.66498 8.38431 10.1763C8.40863 10.4477 8.54319 10.6864 8.78444 10.8858C9.88763 11.7975 10.7223 11.0216 11.5294 10.2711C11.7786 10.0395 12.0361 9.80004 12.3351 9.56073C12.5744 9.36911 12.7827 9.28304 12.8784 9.33679C13.111 9.46679 13.3629 10.2628 13.1944 11.6257C13.1623 11.8857 13.3469 12.1225 13.6069 12.1547C13.6267 12.1571 13.6463 12.1584 13.6657 12.1584C13.9017 12.1583 14.1062 11.9824 14.136 11.7421C14.3381 10.1081 14.0409 8.89929 13.3412 8.50842Z" fill="#898989"/>
<path d="M15.1646 8.93105C13.7706 8.98868 13.2928 10.3768 13.2731 10.4359C13.1903 10.6845 13.3248 10.9531 13.5734 11.0359C13.6231 11.0524 13.6736 11.0603 13.7232 11.0603C13.9219 11.0603 14.1071 10.9345 14.1732 10.7356C14.1759 10.7272 14.4565 9.90986 15.2037 9.87899C15.4655 9.86818 15.6689 9.64724 15.6581 9.38543C15.6472 9.12361 15.4266 8.91924 15.1646 8.93105Z" fill="#898989"/>
<path d="M28.8783 8.78736C28.8101 8.62693 28.6582 8.51586 28.4847 8.49967C28.1997 8.47349 28.0557 8.68836 28.0085 8.75905C27.4522 9.59399 26.3848 10.1672 25.0027 10.373C22.1546 10.7972 20.9983 12.4115 20.9505 12.48C20.9474 12.4844 20.9444 12.4889 20.9415 12.4934C20.5062 13.164 19.0848 14.8485 17.7523 14.594C17.4949 14.5449 17.2465 14.7135 17.1974 14.9709C17.1482 15.2282 17.3169 15.4767 17.5742 15.5259C17.7302 15.5557 17.8839 15.5695 18.0358 15.5695C20.0072 15.5692 21.5941 13.2275 21.7304 13.0204C21.8071 12.9163 22.7734 11.6643 25.1425 11.3114C26.7907 11.066 28.0875 10.3481 28.7949 9.28974C28.9139 9.15692 28.9527 8.9623 28.8783 8.78736Z" fill="#898989"/>
<path d="M24.6929 10.5725C24.4757 10.426 24.1807 10.4836 24.0344 10.7008C23.888 10.918 23.9454 11.2129 24.1627 11.3593C24.1895 11.3773 24.8144 11.8107 24.5109 12.6808C24.4245 12.9282 24.5551 13.1986 24.8024 13.285C24.8542 13.303 24.9069 13.3115 24.9587 13.3115C25.1548 13.3115 25.3384 13.1889 25.4066 12.9934C25.8402 11.7509 25.1293 10.8665 24.6929 10.5725Z" fill="#898989"/>
<path d="M29.3097 11.5805C29.2526 11.3248 28.9993 11.1639 28.7433 11.2209C28.5554 11.2629 24.123 12.2679 22.5065 13.9631C22.3258 14.1527 22.3329 14.453 22.5225 14.6338C22.6143 14.7214 22.7322 14.7649 22.8498 14.7649C22.975 14.7649 23.1 14.7156 23.1931 14.6179C24.6112 13.1307 28.9069 12.1566 28.9501 12.1469C29.2058 12.0897 29.3667 11.8361 29.3097 11.5805Z" fill="#898989"/>
<path d="M10.1398 18.3186C9.9715 18.1179 9.67231 18.0915 9.4715 18.2599C8.69331 18.9122 8.14094 18.9429 8.1355 18.943L8.14525 18.9429V19.8917C8.23293 19.8917 9.032 19.8663 10.081 18.9869C10.2818 18.8186 10.3081 18.5194 10.1398 18.3186Z" fill="#898989"/>
<path d="M12.4742 15.9003C12.2302 15.8051 11.955 15.9259 11.8599 16.17C11.5651 16.9262 10.7552 17.3705 10.7431 17.3771C10.5125 17.5 10.4248 17.7865 10.5472 18.0176C10.6323 18.1784 10.7967 18.2701 10.9668 18.2701C11.0417 18.2701 11.1177 18.2524 11.1884 18.2149C11.2343 18.1906 12.3182 17.6069 12.7439 16.5146C12.839 16.2705 12.7183 15.9954 12.4742 15.9003Z" fill="#898989"/>
<path d="M5.56861 27.9747C5.39318 26.7465 3.02993 26.0628 3.00612 26.056C1.19643 25.5428 0.420177 26.687 0.0876772 27.7371C-0.124823 28.4082 0.0531146 29.0254 0.576177 29.4301C1.00718 29.7636 1.65555 29.927 2.35799 29.927C3.18987 29.927 4.09761 29.6979 4.81005 29.2511C5.5238 28.8035 5.61649 28.3099 5.56861 27.9747ZM4.30599 28.4472C3.25049 29.1092 1.72011 29.1156 1.1568 28.6797C1.01755 28.5719 0.872927 28.3999 0.992115 28.0234C1.27618 27.1265 1.70643 26.8749 2.17674 26.8749C2.3628 26.8749 2.5553 26.9144 2.7473 26.9687C3.53712 27.1926 4.58161 27.7743 4.62936 28.1087C4.63824 28.1708 4.54162 28.2995 4.30599 28.4472Z" fill="#898989"/>
<path d="M3.29041 26.2804C3.16235 26.0519 2.87329 25.9704 2.64466 26.0985C2.62085 26.1119 2.05635 26.4322 1.63641 27.0169C1.05454 27.8269 1.01385 28.7755 1.52172 29.6878C1.60847 29.8437 1.7701 29.9315 1.93666 29.9315C2.01479 29.9315 2.09397 29.9122 2.16691 29.8715C2.39579 29.744 2.4781 29.4552 2.35066 29.2263C1.58447 27.85 2.95035 27.0165 3.10991 26.9253C3.33741 26.7969 3.41822 26.5085 3.29041 26.2804Z" fill="#898989"/>
<path d="M31.7057 -1.17614C31.4932 -1.48608 31.0711 -1.86358 30.2671 -1.90189C30.0454 -1.91239 29.8244 -1.94733 29.6105 -1.98108C29.1105 -2.06002 28.5936 -2.14152 28.0976 -1.90002C27.5715 -1.64383 27.194 -1.07921 26.9099 -0.123207C26.4185 1.52936 26.3844 2.50861 26.7955 3.15104C27.058 3.56129 27.4992 3.81373 28.1068 3.90136C28.1725 3.91092 28.2382 3.91542 28.3037 3.91542C29.138 3.91542 29.9572 3.18154 30.5145 2.53848C31.1476 1.80804 31.7195 0.876981 31.9374 0.221606C32.0518 -0.121957 32.028 -0.705957 31.7057 -1.17614ZM31.0371 -0.0775816C30.6677 1.03317 29.131 2.96742 28.3105 2.96736C28.2872 2.96736 28.2644 2.96579 28.2422 2.96254C27.8065 2.89961 27.6639 2.74823 27.5945 2.63986C27.3573 2.26911 27.4307 1.45379 27.8192 0.147356C28.0168 -0.517082 28.2502 -0.918894 28.5129 -1.04683C28.6104 -1.09427 28.7245 -1.11221 28.8547 -1.11221C29.0289 -1.11221 29.2319 -1.08021 29.4624 -1.04371C29.6902 -1.00777 29.9484 -0.966957 30.2219 -0.953957C30.5549 -0.938144 30.7907 -0.832269 30.923 -0.639394C31.0674 -0.428957 31.0632 -0.155957 31.0371 -0.0775816Z" fill="#898989"/>
<path d="M31.3578 0.524862C30.0165 -1.31614 27.5416 -0.804763 27.4368 -0.782013C27.1807 -0.726638 27.0182 -0.474076 27.0736 -0.218013C27.1291 0.0381119 27.3815 0.200549 27.6377 0.145237C27.6571 0.140987 29.6093 -0.263826 30.591 1.08355C30.6838 1.21099 30.8283 1.27861 30.9748 1.27861C31.0717 1.27861 31.1695 1.24905 31.2537 1.18767C31.4655 1.03336 31.5121 0.736674 31.3578 0.524862Z" fill="#898989"/>
<path d="M24.3249 1.08823C23.5505 0.96123 22.8169 1.48742 22.6897 2.26179C22.5625 3.03617 23.089 3.76961 23.8632 3.89686C23.941 3.90961 24.0184 3.91586 24.0949 3.91586C24.7789 3.91586 25.3839 3.41986 25.4984 2.72342V2.72336C25.6255 1.94898 25.0991 1.21548 24.3249 1.08823ZM24.5623 2.56948C24.5198 2.82761 24.2755 3.00298 24.0172 2.96061C23.7591 2.91823 23.5837 2.67373 23.626 2.41567C23.6642 2.18342 23.8659 2.01817 24.0939 2.01817C24.1194 2.01817 24.1452 2.02023 24.1712 2.02448C24.4292 2.06686 24.6047 2.31136 24.5623 2.56948Z" fill="#898989"/>
<path d="M10.0069 25.9478C9.23264 25.8205 8.49914 26.3471 8.37183 27.1214C8.3102 27.4965 8.39833 27.8732 8.61995 28.1819C8.84164 28.4908 9.17026 28.6947 9.54539 28.7564C9.62351 28.7692 9.70164 28.7756 9.7792 28.7756C10.0743 28.7756 10.3614 28.6839 10.606 28.5083C10.9148 28.2866 11.1188 27.958 11.1805 27.5829C11.3076 26.8086 10.7812 26.0751 10.0069 25.9478ZM10.2443 27.4292C10.2019 27.6872 9.95789 27.8629 9.69926 27.8203C9.4412 27.7779 9.2657 27.5334 9.30814 27.2753C9.34626 27.0431 9.54789 26.8778 9.77595 26.8778C9.80139 26.8778 9.8272 26.8798 9.85314 26.8842C10.1112 26.9266 10.2867 27.1711 10.2443 27.4292Z" fill="#898989"/>
</g>
<defs>
<clipPath id="clip0">
<rect width="32" height="32" fill="white"/>
</clipPath>
</defs>
</svg>
