<svg width="28" height="28" viewBox="0 0 28 28" fill="none" xmlns="http://www.w3.org/2000/svg">
<path d="M8.46128 7.34125C8.61452 7.21877 8.78974 7.12671 8.97753 7.06999C9.04996 7.04926 9.11581 7.01017 9.16869 6.95652C9.22158 6.90286 9.25972 6.83646 9.27941 6.76374C9.41701 6.25118 9.70674 5.79236 10.1104 5.4478C10.514 5.10324 11.0126 4.88913 11.5405 4.83369C12.0683 4.77826 12.6005 4.88411 13.0669 5.13729C13.5333 5.39047 13.9121 5.77908 14.1532 6.25187C14.181 6.30624 14.2199 6.35418 14.2673 6.39261C14.3148 6.43104 14.3698 6.4591 14.4288 6.47499C14.4885 6.49111 14.551 6.49437 14.6121 6.48457C14.6732 6.47477 14.7315 6.45212 14.7832 6.41812C14.9959 6.27742 15.2368 6.18492 15.489 6.14709C15.7412 6.10926 15.9987 6.12701 16.2433 6.19911C16.4879 6.27121 16.7139 6.39591 16.9052 6.56448C17.0966 6.73305 17.2489 6.94142 17.3513 7.17499C17.3854 7.25325 17.4417 7.31981 17.5133 7.36645C17.5848 7.4131 17.6684 7.43779 17.7538 7.4375C17.8137 7.43644 17.873 7.42459 17.9288 7.4025C17.9814 7.37926 18.0289 7.34588 18.0686 7.30427C18.1082 7.26266 18.1393 7.21363 18.1601 7.16C18.1808 7.10636 18.1907 7.04917 18.1893 6.99168C18.1879 6.9342 18.1752 6.87756 18.1519 6.825C17.9479 6.35749 17.612 5.95956 17.1855 5.67985C16.7589 5.40014 16.2601 5.25077 15.75 5.24999C15.3901 5.24946 15.034 5.32396 14.7044 5.46874C14.338 4.9319 13.8293 4.5077 13.2353 4.24367C12.6414 3.97965 11.9857 3.88624 11.3416 3.97389C10.6976 4.06155 10.0907 4.32683 9.58888 4.73998C9.0871 5.15314 8.71029 5.69787 8.50066 6.31312C8.28899 6.39822 8.09135 6.51474 7.91441 6.65874C7.86755 6.69394 7.82825 6.7382 7.79883 6.78888C7.7694 6.83956 7.75046 6.89564 7.74313 6.95378C7.73579 7.01192 7.74021 7.07094 7.75613 7.12735C7.77204 7.18375 7.79912 7.23638 7.83577 7.28211C7.87241 7.32784 7.91787 7.36575 7.96945 7.39357C8.02102 7.4214 8.07766 7.43858 8.13601 7.4441C8.19435 7.44961 8.25321 7.44335 8.30908 7.42568C8.36496 7.40801 8.41672 7.3793 8.46128 7.34125Z" fill="#898989"/>
<path d="M17.2725 23.625C17.1611 23.594 17.042 23.6084 16.9412 23.6649C16.8403 23.7215 16.766 23.8157 16.7344 23.9269L16.1875 25.9306C16.1633 26.0167 16.1133 26.0933 16.0443 26.1501C15.9752 26.2069 15.8904 26.2412 15.8013 26.2484C15.7122 26.2555 15.623 26.2352 15.5458 26.1901C15.4685 26.145 15.407 26.0774 15.3694 25.9962L12.5256 19.9412C12.4908 19.866 12.4353 19.8022 12.3656 19.7572C12.2959 19.7123 12.2148 19.6881 12.1319 19.6875H8.71062C8.64777 19.687 8.58553 19.7 8.52816 19.7256C8.47078 19.7513 8.41961 19.789 8.37812 19.8362L5.57812 23.0387C5.52119 23.1038 5.44626 23.1505 5.3628 23.173C5.27935 23.1955 5.1911 23.1927 5.10919 23.1651C5.02729 23.1375 4.9554 23.0862 4.9026 23.0178C4.84979 22.9494 4.81844 22.8669 4.8125 22.7806C4.80867 22.7228 4.81636 22.6648 4.83514 22.61C4.85392 22.5551 4.8834 22.5046 4.92187 22.4612L7.98437 18.9612C8.02537 18.9146 8.07584 18.8772 8.13241 18.8515C8.18899 18.8259 8.25038 18.8126 8.3125 18.8125H12.6875C12.7712 18.8123 12.8532 18.8361 12.9237 18.8811C12.9943 18.926 13.0505 18.9903 13.0856 19.0662L15.1506 23.4937C15.1882 23.5749 15.2498 23.6425 15.327 23.6876C15.4042 23.7327 15.4934 23.753 15.5825 23.7459C15.6717 23.7387 15.7565 23.7044 15.8255 23.6476C15.8946 23.5908 15.9446 23.5142 15.9687 23.4281L18.4756 14.5556C18.4976 14.4474 18.4778 14.3349 18.4202 14.2407C18.3626 14.1464 18.2716 14.0775 18.1653 14.0476C18.059 14.0177 17.9453 14.0291 17.8471 14.0795C17.7489 14.1299 17.6733 14.2156 17.6356 14.3194L16.625 17.9375H5.9675L1.99062 9.1875H3.5C3.61603 9.1875 3.72731 9.14141 3.80936 9.05936C3.89141 8.97731 3.9375 8.86603 3.9375 8.75C3.9375 8.63397 3.89141 8.52269 3.80936 8.44064C3.72731 8.35859 3.61603 8.3125 3.5 8.3125H1.3125C1.2393 8.31262 1.1673 8.33111 1.10309 8.36627C1.03888 8.40143 0.984528 8.45214 0.944999 8.51375C0.905731 8.57502 0.882366 8.64511 0.877018 8.71768C0.871671 8.79025 0.88451 8.86302 0.914374 8.92937L5.28937 18.5544C5.32388 18.6311 5.37979 18.6963 5.4504 18.7421C5.52102 18.7879 5.60334 18.8123 5.6875 18.8125H6.95187L6.30437 19.5519C5.83185 19.3539 5.32483 19.2513 4.8125 19.25C3.94128 19.2435 3.09213 19.5238 2.39609 20.0479C1.70006 20.5719 1.19583 21.3104 0.961215 22.1495C0.726605 22.9885 0.774658 23.8815 1.09796 24.6905C1.42126 25.4995 2.00184 26.1797 2.75009 26.626C3.49834 27.0723 4.37268 27.2599 5.23816 27.1599C6.10365 27.0599 6.91217 26.6779 7.53895 26.0727C8.16573 25.4676 8.57593 24.673 8.70625 23.8115C8.83656 22.9501 8.67974 22.0697 8.26 21.3062L8.9075 20.5625H11.8519L14.56 26.3681C14.6658 26.5945 14.8339 26.7859 15.0447 26.92C15.2555 27.054 15.5002 27.1252 15.75 27.125H15.855C16.122 27.104 16.3762 27.0017 16.5835 26.832C16.7907 26.6623 16.9411 26.4333 17.0144 26.1756L17.5744 24.185C17.5931 24.1285 17.6001 24.0687 17.5949 24.0093C17.5897 23.95 17.5724 23.8924 17.5441 23.8399C17.5159 23.7875 17.4772 23.7414 17.4305 23.7044C17.3838 23.6675 17.33 23.6404 17.2725 23.625ZM15.4481 22.0412L13.93 18.8125H16.3625L15.4481 22.0412ZM5.9325 23.8656C5.83096 24.038 5.69134 24.1849 5.52431 24.2951C5.35729 24.4053 5.16729 24.4758 4.96883 24.5013C4.77037 24.5268 4.56871 24.5066 4.37926 24.4422C4.18981 24.3779 4.01758 24.271 3.87575 24.1299C3.73392 23.9887 3.62624 23.817 3.56094 23.6279C3.49564 23.4388 3.47444 23.2372 3.49897 23.0386C3.52351 22.84 3.59312 22.6497 3.70249 22.4821C3.81185 22.3146 3.95808 22.1743 4.13 22.0719C3.98211 22.323 3.92199 22.6162 3.95913 22.9052C3.99627 23.1943 4.12854 23.4627 4.33511 23.6683C4.54168 23.8738 4.81078 24.0048 5.1 24.0405C5.38923 24.0763 5.68212 24.0147 5.9325 23.8656ZM7.875 23.1875C7.875 23.7932 7.69539 24.3853 7.35887 24.8889C7.02236 25.3926 6.54407 25.7851 5.98447 26.0169C5.42487 26.2487 4.8091 26.3093 4.21503 26.1912C3.62097 26.073 3.07528 25.7813 2.64698 25.353C2.21869 24.9247 1.92701 24.379 1.80884 23.785C1.69068 23.1909 1.75132 22.5751 1.98312 22.0155C2.21491 21.4559 2.60744 20.9776 3.11107 20.6411C3.61469 20.3046 4.20679 20.125 4.8125 20.125C5.1093 20.1262 5.40425 20.172 5.6875 20.2606L5.0225 21C4.95257 20.9957 4.88243 20.9957 4.8125 21C4.37985 21 3.95692 21.1283 3.59719 21.3687C3.23746 21.609 2.95708 21.9507 2.79151 22.3504C2.62595 22.7501 2.58263 23.1899 2.66703 23.6143C2.75144 24.0386 2.95978 24.4284 3.2657 24.7343C3.57163 25.0402 3.96141 25.2486 4.38574 25.333C4.81007 25.4174 5.24991 25.3741 5.64962 25.2085C6.04933 25.0429 6.39097 24.7625 6.63134 24.4028C6.8717 24.0431 7 23.6201 7 23.1875C6.99793 23.0552 6.98328 22.9233 6.95625 22.7937L7.63437 22.0194C7.79113 22.389 7.87292 22.786 7.875 23.1875Z" fill="#898989"/>
<path d="M25.8125 4.375H21.4375C21.1516 4.3746 20.8735 4.46753 20.6452 4.63968C20.417 4.81183 20.2513 5.05378 20.1731 5.32875L19.3331 8.3125H5.25C5.13397 8.3125 5.02269 8.35859 4.94064 8.44064C4.85859 8.52269 4.8125 8.63397 4.8125 8.75C4.8125 8.86603 4.85859 8.97731 4.94064 9.05936C5.02269 9.14141 5.13397 9.1875 5.25 9.1875H19.0837L18.13 12.5694C18.1095 12.6259 18.1008 12.6862 18.1046 12.7462C18.1084 12.8063 18.1245 12.8649 18.152 12.9185C18.1795 12.972 18.2177 13.0193 18.2643 13.0574C18.3109 13.0955 18.3648 13.1236 18.4228 13.1399C18.4807 13.1562 18.5414 13.1604 18.601 13.1521C18.6606 13.1439 18.7179 13.1235 18.7693 13.0921C18.8206 13.0607 18.865 13.0191 18.8995 12.9698C18.934 12.9205 18.958 12.8646 18.97 12.8056L21 5.56938C21.0265 5.47474 21.084 5.39178 21.1634 5.33384C21.2427 5.2759 21.3393 5.24637 21.4375 5.25H25.8125C25.9285 5.25 26.0398 5.2961 26.1219 5.37814C26.2039 5.46019 26.25 5.57147 26.25 5.6875C26.25 5.80353 26.2039 5.91481 26.1219 5.99686C26.0398 6.07891 25.9285 6.125 25.8125 6.125H22.0981C21.9999 6.12137 21.9034 6.1509 21.824 6.20884C21.7446 6.26678 21.6871 6.34974 21.6606 6.44438L17.2113 22.1944C17.1935 22.2518 17.1877 22.3123 17.1944 22.3721C17.201 22.4319 17.2199 22.4896 17.2499 22.5418C17.2799 22.5939 17.3203 22.6393 17.3686 22.6751C17.4169 22.711 17.472 22.7365 17.5306 22.75C17.5697 22.7564 17.6096 22.7564 17.6488 22.75C17.7469 22.7536 17.8435 22.7241 17.9229 22.6662C18.0022 22.6082 18.0598 22.5253 18.0863 22.4306L22.4306 7H25.8125C26.1606 7 26.4944 6.86172 26.7406 6.61558C26.9867 6.36944 27.125 6.0356 27.125 5.6875C27.125 5.3394 26.9867 5.00556 26.7406 4.75942C26.4944 4.51328 26.1606 4.375 25.8125 4.375Z" fill="#898989"/>
</svg>
